<?xml version="1.0" standalone="no"?><!DOCTYPE svg PUBLIC "-//W3C//DTD SVG 1.1//EN" "http://www.w3.org/Graphics/SVG/1.1/DTD/svg11.dtd"><svg class="icon" width="200px" height="200.00px" viewBox="0 0 1024 1024" version="1.1" xmlns="http://www.w3.org/2000/svg"><path d="M85.333333 320a21.333333 21.333333 0 0 1 21.333334-21.333333h759.166666l-134.253333-134.246667a21.333333 21.333333 0 0 1 30.173333-30.173333l170.666667 170.666666a21.333333 21.333333 0 0 1 0 30.173334l-170.666667 170.666666a21.333333 21.333333 0 0 1-30.173333-30.173333L865.833333 341.333333H106.666667a21.333333 21.333333 0 0 1-21.333334-21.333333z m832 362.666667H158.166667l134.253333-134.246667a21.333333 21.333333 0 0 0-30.173333-30.173333l-170.666667 170.666666a21.333333 21.333333 0 0 0 0 30.173334l170.666667 170.666666a21.333333 21.333333 0 1 0 30.173333-30.173333L158.166667 725.333333H917.333333a21.333333 21.333333 0 0 0 0-42.666666z" fill="#5C5C66" /></svg>