<?xml version="1.0" standalone="no"?><!DOCTYPE svg PUBLIC "-//W3C//DTD SVG 1.1//EN" "http://www.w3.org/Graphics/SVG/1.1/DTD/svg11.dtd"><svg class="icon" width="200px" height="200.00px" viewBox="0 0 1024 1024" version="1.1" xmlns="http://www.w3.org/2000/svg"><path d="M750.972446 1023.43711a23.129667 23.129667 0 0 1-20.366389-13.867566l-73.27806-184.986165-129.567073 149.114712c-6.549994 6.498822-16.272642 9.722648-24.460135 6.498823a22.106231 22.106231 0 0 1-13.867566-20.315217V308.054928c0-8.187493 5.680073-16.323814 13.048817-20.366389a20.110529 20.110529 0 0 1 23.641385 4.042575l477.433173 434.29532c6.549994 6.549994 8.136321 16.272642 5.680073 24.460135s-11.411318 13.867566-20.315216 13.867566h-184.986165l75.78548 186.572492a23.027323 23.027323 0 0 1-11.46249 28.553881l-108.330764 43.189024c-3.223825 0.767577-6.447651 0.767577-8.95507 0.767578z m-87.145627-259.952896h3.274997c7.317572 0.818749 13.816394 6.549994 17.091392 13.867566l78.190556 197.16506 67.597987-27.735131-78.241728-197.165061a18.780062 18.780062 0 0 1 2.50742-20.315216 20.468732 20.468732 0 0 1 17.91014-9.824992h150.752211l-378.876228-342.237198v502.763229l102.65069-109.200685a20.775763 20.775763 0 0 1 17.142563-7.317572z m0 0" fill="#ffffff" /><path d="M826.757926 0.000512H51.095328a37.355436 37.355436 0 0 0-37.457779 37.457779v882.458207a37.355436 37.355436 0 0 0 37.457779 37.457779h335.738376l-84.74055-84.74055H99.145676V84.741062h679.51073v261.488051l84.74055 84.74055V36.690714C865.085626 16.273154 847.891892 0.000512 826.757926 0.000512z m0 0" fill="#ffffff" /></svg>