<svg xmlns="http://www.w3.org/2000/svg" viewBox="0 0 800 800"><path d="M198 102.6c.4 0 .8 0 1.1.1 31.7 3.3 63.5 5.7 95.4 7.3 5.5.3 11 .5 16.5.7.9-.4 1.8-.3 2.6.1 98.6 3.9 197.4.2 295.7-9.2v-.6c.7-10.2 1.2-20.4 1.6-30.5-30.1 3.6-60.4 4.8-90.8 4.5-110.5-1-220.2-21.4-330.9-16.1-.8 15.4-2.1 30.7-3.7 46 3.6-1 7.3-1.8 11.2-2.2.4-.1.8-.2 1.3-.1zm101.7 13.6c-34-1.6-67.9-4.1-101.7-7.6-26.4 2.3-45.4 22.3-64.3 39.1 36.7.4 72.8 12.4 102.5 34.1 14.1-28.4 35.9-50.8 63.5-65.6zM259 239.3c41.9 0 83.6 2.3 125.5.5 33.7-1.4 68-3.6 101.5.9-14.8-14.4-31.3-27.1-49.3-37.6-.4-.2-.7-.6-1-.9-45.7 2.8-91.3 6.1-137 7.1-31.6.7-63.3.2-94.8-2.4-3.6-.3-7.2-.6-10.8-1-.7 12.4-1.4 24.9-2.1 37.3 22.6-2.9 45.3-3.9 68-3.9z" fill="#fff"/><path d="M198.7 354.7c.9-6.9 2.2-13.8 4.4-20.5 5.5-16.9 15.1-32.2 27.7-44.7-1.9-.4-3.7-.7-5.6-1.1-1.9-.4-2.7-2.8-1.8-4.4 7.1-11.9 15.8-22.8 25.9-32.3 2.8-2.7 7.1 1.6 4.2 4.2-8.7 8.2-16.3 17.4-22.7 27.5 18.5 3.8 37.1 7.3 55.7 10.4 4.2.7 13.3 4.1 16.7.5 2-2.2 3-6.8 4.4-9.4 3.9-7.4 9.1-13.9 15.1-19.6 1.9-1.8 5-.5 5.1 2.1.2 4.5.5 9.1.7 13.6.1 2.6.3 5.2.4 7.8 0 .6-.1 5.5.3 5.8.6.6 4.3.6 5.3.8 2.3.4 4.6.8 6.9 1.3 4.6.8 9.2 1.7 13.8 2.5 17.7 3.2 35.4 6.4 53.1 9.7 9.2 1.7 18.3 3.5 27.5 5 5.4.9 8.3-1.3 12-4.9 2.6-2.5 5.1-5.1 7.4-7.8 10.6-12.1 19-26.1 24.8-41.2 1.4-3.6 6.4-2.2 5.8 1.6-2.9 17.4-7 34.4-12.4 51.2 19 10.6 44 10.9 53.8 33.6 7.5 17.3 3.3 35-3.9 51.4 15.6-18.4 28-39.6 26.9-64.6-.2-3.9 5.8-3.8 6 0 .9 21.1-7.2 39.8-19 56.4 1 1.1 1.6 2.5 2.1 3.9.9 2.6 1.5 5.2 2 7.9 12.1-5.6 25-7.4 38.1-.4 17.3 9.2 24.9 27.2 25.1 45.7 11.3-10.4 20.4-23.2 27.5-36.8 15.1-29 19.1-62.8 13-94.8-2.2-11.5-6.5-22.8-11.5-33.4-4.5-9.5-9.8-19.4-17.7-26.6-26.1 18.5-50.2 40-69 65.5-1.2 1.6-4.2 2.3-5.2 0-11.9-26.9-28.4-51.5-48.5-72.7-20.1-3.5-40.7-3.9-61-3.6-38.5.5-76.7 3.1-115.2 2.2-30.9-.7-61.9-2-92.8-.2-.2.2-.5.4-.8.6-20.9 9.7-38.4 26.1-49.7 46.2-10.6 18.8-13.9 41-14.3 62.4 10.7-9.6 27-11.1 39.4-.8z" fill="#a76751"/><path d="M594.9 192.6c.4-13.9.8-27.7 1.3-41.6.1-3.9.2-7.8.4-11.7.1-1.9.1-3.9.2-5.8.1-1.8.7-3.3-.8-4.1-2-1.1-7.4.9-9.7 1.3-3.6.6-7.1 1.1-10.7 1.6-98.8 13.7-198.7-.4-297.8 6.4h-.3c-15.6 13.3-28.2 29.8-37.4 49.2-.6 1.3-2.9 2-4.1 1.1-19.4-14.8-41.7-25.3-65.2-30.8l-.6 25.5c-.1 3.4-1.1 8.2 0 11.4 1.5 4.2 9.4 3.6 12.9 4 16.7 1.9 33.4 3.1 50.2 3.8 120.5 5.2 240.7-15.4 361.6-10.3z" fill="#fff"/><path d="M539.4 113.3c-75.6 5.1-151.5 6.4-227.2 3.4-9.6 4.3-18.5 9.5-26.7 15.5 26.6-1.5 53.3-1.6 79.9-1.3 52.8.7 105.7 3.2 158.4.3 12.8-.7 25.5-1.7 38.2-3.2 6.9-.8 13.8-1.7 20.7-2.8 4.7-.7 10.7-3 15.4-2.3 5.3.8 4.6 6.6 4.5 10.6l-.6 20.4c-.1 1.9-.1 3.7-.2 5.6.5-.1 1-.2 1.6 0 8 2.4 16 2.1 23.8-.6-.3-10.2.2-20.4 1.5-30.5.6-5 1.5-10 2.5-15 .5-2.5 1.9-5.5 2-8.2-31.2 3.3-62.5 6-93.8 8.1z" fill="#fff"/><path d="M547.7 655.1c-3.9-3.8.1-11.7 1.3-15.9 2-7.3 4.2-14.5 6.4-21.6v-.1c-2.1-2-2.6-4.8-3-7.6-.5-4.3-.8-8.7-1-13-8.1-1.8-15.6-4.9-20-13-3-5.4-3.9-11.8-3.7-17.9.1-3.8.2-9.3 3.5-11.8-3.2-2.7-5.9-6.1-7.9-9.9-1.4-2.7-2.4-5.5-3.2-8.3-6-1-12.1-1.6-18.2-1.8-.2 0-.4 0-.5-.1-11.5 7.5-23.4 14.2-35.8 19.9 23.5 5.6 45.6 26.4 43.4 51.6-1.2 14.1-9.2 27.1-17.2 38.5.3.4.4.9.5 1.4 2.1 30.2-.3 60.4 0 90.6 0 .9-.3 1.5-.8 2h35.6s0-.1.1-.1c8.9-13.7 14.6-29.5 20.3-44.7 4.8-12.7 9.3-25.6 14.4-38.2-3.8 1.3-10.8 3.3-14.2 0z" fill="#b9c2fe"/><path d="M509.4 528.6c3.2.3 6.4.6 9.6 1.1-.3-2.6-.4-5.3-.2-8-3.1 2.4-6.2 4.7-9.4 6.9z" fill="#adacad"/><path d="M597.8 198.7c-36.2-1.7-72.5-1-108.7.6-14.4.7-28.8 1.5-43.1 2.3 18.4 11.4 35.3 25.1 50.3 40.7.7.3 1.1.8 1.3 1.4 19.3 20.4 35.4 43.8 47.3 69.4 29.2-37.8 69.5-66.8 110.6-90.5-8.5-6-19.2-7.7-28.5-12.2-9.2-4.5-17.8-10.3-26.1-16.4v1.6c-.2 1.7-1.5 3.2-3.1 3.1z" fill="#fff"/><path d="M565 620.1c-1.3-.1-2.7-.1-4-.3-1.6 5.1-3.2 10.3-4.7 15.5-.7 2.5-5 13.6-3.3 14.9 2.2 1.8 8.2-.8 12.2-2.6.5-.6 1.2-.9 1.9-.8.4-.2.8-.3 1.1-.4 3-1.1 5.6-1.7 8.3.3 3.8 2.8 5.5 7.3 9.9 9.5 6.1 3 10.8-1 12.2-6.8 1.2-5.1.5-11.1 0-16.3-.5-5.1-1.5-10.1-3.2-15-5 1.7-11.1 2.1-15.2 2.3-5.1.3-10.2 0-15.2-.3z" fill="#a76751"/><path d="M157.6 419.9c1.4 4.1 3.1 9.5 7.9 10.5.7.1 1.2.5 1.6.9 1.5-3.4 3.1-6.8 5.1-10 5.3-8.8 12.5-16.2 17.7-25.1 5.9-10.1 7-21.3 7.9-32.8.1-.7.1-1.3.2-2-.6-.1-1.2-.3-1.7-.8-6.7-6.4-16.3-9-25.2-5.8-9.5 3.4-14.5 11.8-16.5 21.3-2.1 9.8-2.1 20.2-.4 30.1.7 4.5 1.9 9.2 3.4 13.7z" fill="#ffc7c2"/><path d="M557.3 512.3c-8.6 2.4-22.3 4-31.2-.8-1.3 6.6-2 13.5-.8 20.1.3.5.4 1.1.3 1.7.5 2.3 1.2 4.6 2.3 6.7 3.7 7.9 10.9 14.4 19.8 15.3 3.8.4 3.8 6.4 0 6-4-.4-7.7-1.6-11.1-3.4-.3.5-.9.9-1.6 1.1-2.3.6-1.1 12.2-.8 14 .7 4.6 2.5 9.1 6 12.4 7.6 7.2 19.9 6.6 29.6 8.5 15.1.8 31.5-5.6 38-20.1 5.4-12 3.5-27.1-1-39.5-1.4 2-2.9 3.9-4.6 5.7-2.7 2.8-7-1.5-4.2-4.2 9.9-10.1 12-24.2 10.7-37.8-.6-6.8-2-13.5-3.6-20.1-.8-3.6-1.8-7.2-3.3-10.5-1.7 6-4.2 11.8-7.4 16.9-8.5 13.5-21.7 23.8-37.1 28z" fill="#a76751"/><path d="M569.4 599.8c-.2 0-.3 0-.5-.1h-.3c-3.6-.7-7.4-1.2-11.2-1.8 0 5.5-.1 14.4 4 16 2.4.9 6.3.5 8.9.6 2.7.1 5.4.2 8 .1 5.2-.1 13.6-.3 18-3.6 3.9-3 2.4-12.1 1.1-17.6-8.3 4.8-18.4 7-28 6.4z" fill="#ff4366"/><path d="M324.7 568.9c.6-.2 1.2-.1 1.8.2 29.5 3.1 59.6 2.2 88.5-4.2 38.5-8.5 73.8-27 104.6-51.3h.1c.3-2.2.8-4.3 1.3-6.4-.7-.9-1.3-1.9-1.9-3-1.7-3.5 3.5-6.5 5.2-3 3.7 7.8 14.7 7.8 22.2 7.1 8.7-.8 17.1-3.8 24.5-8.5 14.7-9.3 24.2-25.3 26.9-42.3 2.8-17.6-1.8-37.7-16.9-48.5-6.6-4.8-14.8-7.5-23-6.8-9.8.9-18.5 6.4-26.5 11.7-3.2 2.1-6.2-3.1-3-5.2 2.4-1.6 4.9-3.1 7.3-4.5-.3-2.1-.8-4.2-1.3-6.3-.2-.9-.4-2.2-.9-3.2-6.2 8.1-13.2 15.7-20.2 22.8-2.5 2.5-6.3-.7-4.7-3.6 10.8-19.8 23.8-44.8 12.3-67.1-10.2-19.7-35.4-19.5-52.5-30-1.1-.7-1.8-2.1-1.4-3.4 3.3-9.9 6.1-19.9 8.5-30.1-3.7 6.4-8 12.5-12.7 18.3-4.3 5.3-9 10.6-14.3 15-5.1 4.2-10 3.9-16.2 2.8-16.7-3-33.4-6.1-50.1-9.1-16.4-3-32.8-6-49.1-8.9-2.7-.5-6.6-.5-8.5-2.9-1.4-1.8-1.2-4.5-1.3-6.7-.3-5.8-.6-11.6-.9-17.3-5.2 5.9-9.2 12.5-12.4 19.8-3.6 8.3-9.2 8-17.2 6.7-18.3-3-36.5-6.4-54.7-10-15.7 14.4-26.9 33.2-31.6 54-2.5 11-2.4 22.3-4.1 33.4-1.7 10.9-6.1 20-12.6 28.8-5.6 7.7-11.7 14.9-15.8 23.6-3.9 8.2-6.2 17.2-7 26.3-1.5 18 3 36.4 13.4 51.2 11.1 15.8 28 26.3 45.2 34.2 19.2 8.8 39.8 15.1 60.3 19.8 12.5 2.9 25.6 5.2 38.7 6.6zm125 105.9c-8-3-15.8-6.3-23.5-9.9-9.3-4.5-18.6-9.5-26.1-16.7-13.1 14.9-23.8 32.2-32 50.3-.2.5-.6.9-.9 1.1-.1 1.7-1.5 3.4-3.7 2.9-7.7-2-15.9-3.6-23.8-1.6-3.2.8-6.2 2.1-8.9 4-.8.6-4 3.1-4.2 4.3-.4 2.5 3.6 4 5.3 4.3l.9.3c.4-.5.9-1 1.4-1.5 2.4-1.9 5.4-2.3 8.4-2.3 3.9 0 3.9 6 0 6-1.4 0-3.3 0-4.5.9-.9.7-1.7 2.8-1.2 4 .6 1.3 3.7 1.5 5.2 1.7.4-.7.8-1.3 1.3-1.8 1.9-2 4.7-2.7 7.3-3.2 1.6-.3 3.2.4 3.7 2.1.4 1.5-.5 3.4-2.1 3.7-1.4.2-3.2.4-4.3 1.3-.3.3-.6.6-.8 1-.2.5-.1.6.1 1 0 .1 0 .2.1.3 13.9-.3 27.8-.8 41.5-2.9.8-.1 1.7 0 2.4.3 13-.6 23.9-10.2 33.1-18.5 10.1-9.1 17.8-20 25.3-31.1z" fill="#ffe1df"/><path d="M385 731.5c-22.4 2.7-45 2.2-67.6 2.9-1.1 0-1.9-.3-2.4-.9-.6-.3-1.1-.9-1.3-1.7L292.4 667c-.8-2.3-1.5-4.6-2.3-6.9-.2-.3-.3-.6-.3-1-2.7-8.3-5.5-16.7-8.2-25-2.8-8.4-7.2-17.6-8-26.6h-159c6.3 45.5 19.1 90.2 32.8 134h234.7c.9-3.3 1.9-6.7 2.9-10z" fill="#b9c2fe"/><path d="M486.3 736.2c-.3-28.3 1.8-56.6.3-84.8-6.9 9.4-14.4 18.5-22.7 26.7-.6.7-1.6 1.1-2.9.7-1.9-.6-3.7-1.2-5.6-1.9-8.6 12.8-17.4 25-29.1 35.2-9.6 8.4-20.6 17-33.7 18.1-.8 2.7-1.6 5.3-2.4 8H487c-.3-.5-.7-1.1-.7-2z" fill="#bfeafd"/><path d="M157.3 534.2c-5.9-.2-12.5.4-17.8-2.4-1.2 9.2-1.7 18.8-1.7 28 0 2-.1 4.4 1.3 6 2.5 2.7 6.3.5 8.9-1.2 3-1.9 5.9-4.1 9.5-4.6 4.2-.6 7.2 1.3 10.5 3.6 2.6 1.8 6.7 4.1 9 .6 1.1-1.7 1-4.3 1-6.3 0-8.4-2-17.2-6.2-24.5-4.1 2.2-10 .9-14.5.8z" fill="#a76751"/><path d="M279.4 606.2c.4 5.1 2.6 10.2 4.2 15.1 1.6 5 3.3 10 4.9 15 .5 1.6 1.1 3.3 1.6 4.9 0-1.7.1-3.3.2-5 .3-6.9.4-14.8 3.1-21.3 1.5-3.5 7.3-2 5.8 1.6-2.7 6.4-2.6 14.2-2.9 21-.3 6.9-.3 13.8-.5 20.7 1 3 2 6.1 3 9.1 6.6 20 13.2 40 19.8 60.1 5.6-.2 11.2-.3 16.8-.3-.3-.1-.6-.3-.9-.4-2.4-1.2-3.5-3.9-3.6-6.4v-1h-.5c-4.4-.8-9.7-3.8-10.1-8.8-.4-4.7 4.6-8.8 8.1-11.1 10.2-6.8 22.9-5.9 34.3-3.2 0-.2.1-.4.2-.7 8.4-18.5 19.5-36.2 33-51.5-5.3-6.1-9.2-13.7-3.8-21.3 3.4-4.8 8.3-8.7 12.6-12.7 4.8-4.5 9.7-8.9 14.7-13.1 2.9-2.5 7.2 1.7 4.2 4.2-8.1 6.9-16 14.1-23.5 21.6-2.2 2.2-4.7 4.6-4.6 7.9 0 2.7 1.6 4.9 3.1 7.1 2.7 3.7 6.1 6.9 9.7 9.8 15.1 11.9 34.7 19.1 52.8 25.1 8.1-8.2 15.5-17.3 22.3-26.7 7.5-10.3 15.5-21.7 18.6-34.3 7-27.7-20.6-51.9-46.6-53h-.1c-16.5 6.8-33.7 11.8-51.6 14.7 1.4 4.2.6 8.5-.3 13-1.5 7.2-3.3 14.3-5.2 21.3-.3 1.2-1.6 2.3-2.9 2.2-19.5-1.4-38.6 2.8-57 8.9-.7.2-1.3.2-1.9 0-1.4.3-2.8-.3-3.1-2.1-1.2-7.2-11.3-11.6-16.7-15-7.5-4.8-16-9-22.9-14.6-4.9-3.9-1.6-7.1 2.7-9.2 3.6-1.8 7.3-3.5 11.1-5-7.4-1.2-14.7-2.6-21.9-4.2-16.2 8.3-31 19.6-43.2 33.2H277c2.7-.2 3.5 2.6 2.4 4.4z" fill="#bfeafd"/><path d="M138 517.5c-.1 3.5.3 6.7 4 8.9s9.3 1.6 13.5 1.7c3 .1 11.6 1.9 14-.6 2.5-2.6.6-9.1-.6-12.6-4.6 1.3-9.7 1.9-13.8 2.7-6.1 1.2-11.5 2.2-17.1-.1z" fill="#ff4366"/><path d="M161.4 475.5c-.3.1-.6.2-1 .2-4.8.1-9.4-1.2-13.2-4.1-3.1-2.3-.1-7.5 3-5.2 3.1 2.2 6.4 3.3 10.2 3.2h.4c-.5-7.7 0-15.5 1.5-23 .7-3.6 1.7-7.1 2.9-10.6-.4.1-.8.1-1.3 0-10.7-2.2-13.6-17.8-15.3-26.7-.4-2.1-.7-4.2-1-6.4-9.6 5.4-16.3 14-19.2 25-3.2 12.3-2.1 27.2 9.5 34.7 3.2 2.1.2 7.3-3 5.2-1.7-1.1-3.2-2.3-4.5-3.6-7.5 7-7.9 18.4-4.8 27.8 2.9 8.6 9.3 21.1 20 21 4 0 8.3-1.4 12.3-2.3 4.2-.9 10.2-1.3 13.8-3.7.2-.1.3-.2.5-.3-1.6-2.7-3.1-5.5-4.4-8.4-3.2-7.2-5.4-14.9-6.4-22.8z" fill="#a76751"/><path d="M363.4 585.8c5-3.5 10.2-6.8 15.6-9.7-15.7 1.1-31.5.9-47.3-.4 5.6 8.6 9.1 19.3 8.9 29.6 6.8-7.4 14.7-13.8 22.8-19.5z" fill="#ffe1df"/><path d="M398 575c-11.5 2.9-22 9.2-31.6 15.9-8.1 5.7-15.9 12.2-22.6 19.6 16-4.7 32.5-7.8 49.2-7 1.2-4.5 2.4-9.1 3.4-13.6 1-4.4 3.3-10.4 1.6-14.9zm-98.8 7.9c1.3.6 3.3 2.4 4.1 2.9 3.3 2.1 6.6 4.2 9.8 6.2 5.8 3.7 11.9 7 17.3 11.2 1.4 1.1 2.8 2.2 4.1 3.5.8-11.3-3.7-23.5-10.7-32-1.2-.1-2.5-.3-3.7-.4-.3.2-.5.3-.9.4-6.8 2-13.4 4.8-19.7 8-.1.2-.2.2-.3.2z" fill="#fff"/><ellipse transform="rotate(-81.228 430.84 494.988)" cx="430.9" cy="495" rx="27.3" ry="52" fill="#ffa9b3"/><path d="M416.2 496.5c-.5-1.7 0-3.3.9-4.8.7-1.2-.1-3-1.3-3.5-1.4-.6-2.8.1-3.5 1.3-1.6 2.7-1.8 5.9-.9 8.9.4 1.4 2.2 2 3.4 1.5 1.4-.5 1.8-2 1.4-3.4zm17.9 2.7c-.3-1.2-.6-2.4-.8-3.6-.3-1.4-1.4-2.5-2.9-2.3-1.3.1-2.6 1.5-2.3 2.9.3 1.2.6 2.4.8 3.6.3 1.4 1.4 2.5 2.9 2.3 1.2-.1 2.6-1.5 2.3-2.9zm15.6-3.1c-.4-3.4-5.7-2.8-5.3.6.2 1.9.2 3.6-.2 5.5-.6 3.4 4.6 4.2 5.2.8.5-2.3.6-4.6.3-6.9z" fill="#ff4d6f"/><ellipse transform="rotate(-79.636 235.12 464.771)" cx="235.1" cy="464.8" rx="27.3" ry="52" fill="#ffa9b3"/><path d="M220.5 465.9c-.4-1.7.1-3.3 1-4.7.8-1.2 0-3-1.2-3.5-1.4-.7-2.8 0-3.5 1.2-1.7 2.7-2 5.8-1.2 8.8.3 1.4 2.1 2 3.4 1.6 1.3-.5 1.8-2 1.5-3.4zm17.7 3.2c-.2-1.2-.5-2.4-.7-3.6-.3-1.4-1.3-2.5-2.9-2.4-1.3.1-2.7 1.5-2.4 2.9.2 1.2.5 2.4.7 3.6.3 1.4 1.3 2.5 2.9 2.4 1.3-.1 2.7-1.5 2.4-2.9zm15.7-2.7c-.3-3.4-5.6-2.9-5.3.5.2 1.9.1 3.6-.3 5.5-.7 3.3 4.5 4.3 5.2 1 .5-2.3.6-4.7.4-7z" fill="#ff4d6f"/><path d="M274 390.7c-2.5-6-9.3-12.5-15.7-10.5-1.1-1.9-3.9-2.7-5.1-.2-4.5 9.9-9.2 22.4-4.8 33.1 1.4 3.4 4.1 7.5 8 8.3 4.1.9 8.8-1.4 11.9-4 7.6-6.2 9.4-17.7 5.7-26.7zM458 414c-1.2-3.9-2.8-8.6-7.1-10-1.6-.5-3.1-.4-4.5.1-1-1.2-2.9-1.7-4.2-.2-6.6 7.5-9.8 17.4-8.2 27.3.7 4.3 2 9.8 6.3 12.1 3.9 2 8.6.7 11.9-1.7 8.6-6.4 8.7-18.3 5.8-27.6z" fill="#6c3530"/><path d="M340.2 522.9c-.9-1.1-2.6-1.1-3.8-.4-.9.1-1.6.7-2.1 1.4-2.9 4.7-6.3 29.4 5.4 24.3 3.9-1.7 5.1-7.3 5.4-11.1.3-5.2-1.6-10.1-4.9-14.2z" fill="#ef2b2b"/><path d="M650.2 343.2c-.7-21.9-6.1-43.5-14.9-63.5-2.1-4.8-4.4-9.6-7-14.2-2-3.7-4.2-9.2-8.1-11.3-3-1.6-5.8-.6-8.5 1.1-4.5 2.9-8.6 6.6-12.7 10-19.9 16.3-38.4 34.4-55.3 53.8-3-5.1-6.1-10.1-9.3-15.1 0-.2-.1-.4-.2-.6l-2.4-3.7c-4.4-6.9-8.9-13.8-13.5-20.6-6-9.4-12.4-18.5-19.2-27.3.3-.3.4-.7.2-1.3-2-7.6-15.3-8-21.4-8.8-12-1.4-24.3-1.3-36.4-1-10 .3-20 1.4-30.1 2.4.2-.9-.2-1.9-1.4-1.8-54 3.7-108.2 4.2-162.2 1.6-1.3-.1-1.7 1.3-1.2 2.2-5.9-.2-11.7-.5-17.6-.8-.2 0-.4 0-.5.1-.9-.6-1.8-1.2-2.7-1.9-1.5-1.2-3 1.4-1.5 2.6 12.7 9.5 28.8 11.6 44.1 13.5 19 2.3 38 3.6 57.1 3.9 19.1.3 38.2-.2 57.3-1.5 19.4-1.3 38.8-4.2 58.3-4.5 17.7-.3 35.7 2 51.5 10.5 6.7 3.6 12.9 8.3 17.9 14.2 6.1 7.1 9.5 15.7 12.7 24.4 4.2 11.6 8.2 29.1 23.6 28.6h.1c-9 21.4-18 42.7-27 64.1-.6 1.5 1.5 2.3 2.5 1.5 10.7-9 17.6-22.5 23.5-34.9 2.9-6.1 5.4-12.5 6.9-19.2.9-3.9 2.1-8.5.6-12.3 5-1.1 9.9-2.8 14.9-3.3 7.8-.8 14.6 2.2 19.7 8.1 12.3 14.3 11.7 36.5 6.5 53.5-1.3 4.2-3 8.4-3.4 12.9-.4 4.7.9 9.1 2.1 13.6 2.9 10.5 5.8 21 8.7 31.4.3 1.2 1.7 1.4 2.5.7 31.3-26.2 47-67 45.8-107.1zm-43.2 187c-.3-1-1.7-1.6-2.5-.7-1.8 2.2-3.7 4.1-5.7 6 1.2-1.8 2.3-3.6 3.3-5.5 6-7.3 7.2-17.5 7.1-26.7-.1-12.5-3.1-24.8-6.1-36.9-.5-1.9-3.3-1.1-2.9.8.1.3.1.6.2.9-.3.6-.6 1.3-.9 1.9-.8 0-1.6.5-1.6 1.4-1 19-5.9 38.2-17.3 53.8-5.2 7.1-11.6 13.3-19 18.1-7.3 4.7-15.9 6.1-23.2 10.7-.9.5-1.1 2.1 0 2.6 11 4.8 22.3 1.8 33-2.2 6-2.3 11.9-4.9 17-8.6-.5 11.1-6 21.3-14.4 28.6-8.1 7.1-20.3 13.7-31.3 13.7-1.8 0-1.9 2.4-.4 2.9 9.7 3.9 20.4 6.3 31 6 9.8-.3 18-4.5 25.1-11.1 15.8-14.6 14.7-36.7 8.6-55.7zm-6.2 96.7c-.5-3.4-1.5-7.2-4.9-8.8-3.3-1.6-7.7-.4-11.2.8-.8-.9-2.7-.6-2.7.9.2 7.7-7.3 16-13.2 20.5-5.4 4.1-12.1 6.3-18.1 9.6-.9.5-1 2.1 0 2.6 4 2 8.1-.3 12.1-1.6 4.4-1.5 9.3-2.8 14-2.1 1.4 1 2.9 2.1 4.2 3.3.6 1 1.3 2 2 3-.2.5-.1 1 .4 1.4.5.4 1 .9 1.5 1.3.1.1.3.2.4.2.3.4.7.8 1 1.2.6.7 1.3.6 1.9.2.5.5 1 .9 1.7 1.2 2.9 1.4 6.1-.3 7.9-2.7 2.6-3.5 2.8-8.5 3.3-12.6.6-6.2.6-12.4-.3-18.4zm-427-121.7c-1.4-4.6-3.6-8.9-5-13.5-1.3-4.2-1.8-8.9-3.5-13-1.1-2.7-3.2-4.3-5.8-5.5 5.6-3.8 3.7-15.5 4.6-20.9.7-4.1 3.5-8.4 2.7-12.7-.6-3.1-3-4.8-5.5-6.4-9-5.8-10.4-16.3-11.2-26.3-.1-.7-.5-1.1-1-1.3.1-.3.2-.5.3-.8.7-1.8-2.2-2.6-2.9-.8-3.8 10.1-7 20.3-3.5 31 1.7 5.2 4.8 10.4 5 16 .3 7.5-5.7 12.9-13 12.4-1.6-.1-1.8 2-.8 2.8.5.4 1 .7 1.6 1.1-.2.6 0 1.3.6 1.7 7.3 5.5 15.6 11.7 19 20.5 2.8 7.4-2.1 11.4-7.6 15.3-3.9 2.8-8.1 5-12.6 6.8-1.6.6-1.3 2.7.4 2.9 9.8 1.1 19.9 1.5 29.7.2 5.5-.7 10.4-3.4 8.5-9.5zm2.5 29.5c-4.2-4.8-12.5-3.3-18.9-1.9-.8-1-2-.4-2.4.6-.5.1-1.1.2-1.5.3-1.9.4-1.1 3.3.8 2.9.7-.1 1.3-.3 2-.4 6.5 10-6.5 23.7-14.2 28.9-1.6 1.1-.2 3.3 1.5 2.6 5.9-2.6 12-6.7 18.5-3.5 3.6 1.8 6.6 4.4 10.6 5.2 7 1.3 10.6-4.3 11.2-10.6.7-7.6-2.6-18.4-7.6-24.1zm51.5-249c-.1-1.2-1.5-2.2-2.5-1.1-.3.3-.6.7-.9 1.1-1 .1-1.5 1-1.4 1.7-8.3 10.3-15.7 21.4-21.5 33.3-5.6 11.3-9.5 24.2-4.3 36.4.7 1.5 2.7.5 2.8-.8 1.7-17.7 8.6-34.8 20.1-48.5 2.7-3.2 5.7-6.1 8.7-9 2-1.9 5.7-4.9 6.5-7.7 1-4-3.7-5.2-7.5-5.4z" fill="#823f2c"/><path d="M539 406.6c0-.4-.1-.7-.3-1 0-2-.1-4-.2-6.1-.1-1.2-1.4-1.7-2.2-1.3-.2-1.7-.5-3.4-.8-5-.3-1.9-3.1-1.1-2.9.7-.2.1-.4.3-.5.5-2.3 4-5.1 7.5-8.3 10.8-2.2 2.3-4.2 4.2-4.7 7.6 0 .2 0 .4-.1.7-1-4.2-2.3-8.4-3.8-12.5 6-10.5 12.5-23.5 12.9-35.8.3-8.3-3.8-15.3-9.3-20.9-3.2-6.7-9.5-11.2-16.3-14.7-.4-.2-.7-.2-1-.1-1.9-1.2-3.9-2.4-5.9-3.6-1.2-.7-2.3.4-2.2 1.5-5.2-2.6-10.4-5.1-15.5-7.8-2.3-1.2-7.2-2.8-8.2-5.1-1.1-2.4 1.3-7.6 2-10.2 1.6-6.1 3.2-12.1 4.7-18.2.4-.5.8-1 1.2-1.4.7-.8.4-1.7-.2-2.3l.1-.4c.5-1.9-2.4-2.7-2.9-.8l-.9 3.4c-4.5 5.4-9.1 10.7-13.6 16.1-4.1 4.9-8.3 11.8-13.7 15.4-4 2.7-8.5 1.6-12.9.9-3.9-.6-7.9-1.3-11.8-1.9-7.6-1.2-15.1-2.4-22.7-3.7-15.1-2.4-30.2-4.9-45.3-7.3-7-1.1-14.2-1.8-21-3.5-2.2-.6-4-1.5-5.3-2.6-2.1-4.7-3.3-9.5-3.6-14.7 0-.7-.4-1.2-.9-1.4.5-3.3 1.3-6.5 1.6-8.8.2-1.4-1.3-2.6-2.5-1.5-4.5 4.3-8.4 9.1-11.6 14.5-2.9 5-4.6 14.8-11.4 14.9-3.5.1-7.5-1.2-11-1.8-3.8-.6-7.5-1.2-11.3-1.9-7.2-1.3-14.3-2.8-21.2-5.2-.7-.3-1.3.1-1.6.6-.6.6-.8 1.8.2 2.4 31 19.9 68.6 22 104.2 25.5 21.6 2.1 43.1 4.8 64.5 8.3 10 1.6 20 3.5 29.5 7.2 9.6 3.8 18.3 9.6 26 16.4 22 19.2 36.7 46.1 40.4 74.8.2 3.8.4 7.6.6 11.2 0 .4.1.7.3.9.1 3.6 0 7.3-.3 11-3.2 38.5-26.7 69.8-59.6 88.6-39.7 22.7-86.4 26-131.1 29-1.1.1-1.9 1.2-1.3 2.3l1.8 3c0 .1.1.2.1.3.1.1.1.2.2.3 2.8 5.3 4.9 10.9 6.2 16.9.3 1.3 1.8 1.3 2.5.6.9 2.1 1.8 4.4 2.2 6.7-.9-.3-2 .1-1.9 1.3.1 2.2.3 4.5.4 6.7.1 1.6 1.9 2 2.8.8.2-.3.5-.7.6-1 9.1-11 20.1-20.7 33.1-26.9 14.6-6.9 30.9-7.2 46.3-11 30-7.5 57.2-23.4 82.1-41.4 6-4.3 12.6-8.6 16.1-15.3.5-1 .9-2 1.3-3 3.1-5 4.8-10.8 6-16.7 0-.2.1-.3.1-.5 2.9-8 4.8-16.3 6.8-24.5 4.6-19.8 4.4-39.8 5-60zm-87.7 266.1c-9.5-1.5-17.3-5.2-25.9-9.7-4.1-2.1-8.2-4.3-12.2-6.4-4-2.1-9.9-4.4-10.4-9.6-.1-1.4-1.7-1.8-2.5-1.2-.7-.4-1.6-.4-2.1.4-5.9 10.2 3.4 20.3 7.6 29.2 2.9 6.3 5.7 13.2 6.4 20.1.8 7.8-1.9 15.1-4.6 22.2-.4 1 .6 1.8 1.4 1.9 4.3.5 7.1-3.2 9.9-6 4.1-4.1 8.2-8.4 12.1-12.7 7.5-8.3 14.5-17.1 21.2-26.1.5-.6 0-1.9-.9-2.1z" fill="#ffc7c2"/><path d="M503 597.7c-3-17.2-17.3-31.5-33.8-38.2-13.5-5.5-27.2.6-40.4 4.3-6.1 1.7-12.3 3.3-18.1 6-2.3 1.1-5.3 2.4-7 4.4-1 1.1-1.2 4.5-2.1 5.2-1.5 1.2.6 3.3 2.1 2.1.2-.2.4-.4.6-.5h.5c15.6-2 32.1-3.7 47.3 1.4 12.9 4.3 25.1 14 28.2 27.8 3.1 14-3.6 28.9-16 35.9-7.1 4-15.2 5.7-23.2 6.4-7.5.6-18.5 2.1-25.4-1.1-1.7-.8-3.2 1.6-1.5 2.6 11.3 6.5 22.6 13.1 34.7 17.9 3.7 1.5 9 4.6 12.8 2 2.6-1.8 4.6-5.1 6.6-7.5 2.3-2.7 4.6-5.5 6.9-8.2 4.6-5.5 9.2-10.9 13.7-16.4 3.9-4.6 8.6-9.2 11.4-14.5 2.2-4.1 2.3-8.4 2.1-12.9 1.4-5.7 1.6-11.3.6-16.7zm-207.9 15.1c-3.2-.3-6.1 2.9-8.2 4.9-2.3 2.3-4.2 4.9-5 8.1-.3 1.2.7 1.9 1.7 1.9.1.4.2.7.5.9-.6 1.4-1.2 2.9-1.2 4.2 0 .5.3 1 .7 1.3.1.1.2.1.3.2 1.5.8 2.8-1 2-2.2.2-1.3.9-2.9 1.6-4.3-.2 1.4-.4 2.8-.5 4.2 0 .1 0 .2-.1.3-.8 4.2-2.2 9.6-.2 13.5.3.6.9.8 1.5.7 0 1.8 2.9 1.8 3-.1l.8-22c.9-2.8 1.9-5.5 3.1-8.1.1-.2.1-.3.1-.5 1.8 0 1.7-2.8-.1-3z" fill="#7fd2ef"/><path d="M489.1 685c0-.7-.4-1.1-.9-1.3.2-5.9.4-11.9.4-17.8 0-.7-.4-1.1-.9-1.3 0-3.8-.1-7.5-.3-11.3 0-.7-.6-1.2-1.2-1.4-.6-.7-1.8-.7-2.4.2-3.6 5.3-7.4 10.4-11.5 15.4-1.7 2.1-3.4 4.1-5.1 6.1-3.7 4.2-7.4 4.4-12.4 2.7-.6-.2-1.4.1-1.7.7-5.6 11.3-13.2 21.2-22.8 29.5-.5.4-.6.9-.4 1.3-.2.3-.3.7-.1 1.2 4.1 14.5-10.9 23.1-21.8 28.5-1.5.7-.6 2.7.8 2.8 14.7 1.4 29.3 2.3 44.1 2.3h21.8c3.7 0 9.5.9 11.9-2.7 1-1.6.9-3.4.9-5.2 0-3.5-.1-6.9-.2-10.4.6 1.1 2.8.9 2.8-.8.2-12.8-.2-25.7-1-38.5zm-2.1 23.1c.1 3.9.1 7.8.1 11.6l-.3-7.2c.1-1.4.2-2.9.2-4.4z" fill="#7fd2ef"/><path d="M523 566.4c-3-13.8-12.8-30.6-29.5-26.5.4-.6.7-1.3 1.1-1.9.7-1.2-.8-3-2.1-2.1-9.3 6.6-19.5 11.3-30.5 14-1.5.4-1.3 2.4 0 2.9 16.2 6.1 31.1 17.2 40.4 32 2.7 4.3 5 9 6.3 14-.9-.2-1.9.2-1.9 1.4 0 6.9-1.1 13.6-3.4 19.9-2.9 3.8-5.7 7.8-8.1 12-2.5 4.4-5.5 9.2-5.9 14.3-.4 4.1.1 8.3.5 12.4-.1 5.5.1 11 .1 16.5-.1 3.1-.3 6.1-.5 9.2 0 .5.1.9.4 1.1l-.3 53.4c0 .7.5 1.2 1.1 1.4 5.6 1.8 12.4 3.7 18.2 1.4 6.3-2.5 7.9-9.3 9.8-15.2 5.4-17 8.8-34.6 10.5-52.4 3.5-35.4 1.5-72.9-6.2-107.8zm-13.3 37.2c.2 1.7.3 3.4.3 5.1-.1 5.5-1.9 10-4.5 14.2.2-.5.4-1 .6-1.6.3-.3.5-.7.8-1 .5-.6.4-1.2.2-1.8 1.5-4.7 2.4-9.7 2.6-14.9z" fill="#a0aff2"/><path d="M561.3 458c-3.4 1.8-.4 7 3 5.2 5.6-3 6.1 5.6 4.4 8.8-1.3 2.6-3.6 5-6 6.7-3.1 2.1-7.3 3.2-10.8 1.4-3.5-1.8-4.3-6.1-4.5-9.7-.4-6.7 2.1-13.2 5.7-18.8 2.5-3.8 11-16 16.4-14.7 3.7.9 5.3-4.9 1.6-5.8-6-1.5-10.3 2.7-14.3 6.7-4.6 4.6-8.9 9.9-11.7 15.8-4.2 8.9-7 25.1 3.2 31.2 9.9 6 22-1.7 26.3-11.1 3.9-8.7-3-21.3-13.3-15.7z" fill="#ffc7c2"/><path d="M172.5 517.2c-.3-3.2-2.6-6-6-6-3 0-6.2 2.7-6 6 .2 2.5 0 4.8-1.1 7-1.7 1.9-2.3 4.7-.9 7.1 1.5 2.6 5.5 4 8.1 2.1 4.9-3.3 6.3-10.7 5.9-16.2zm427.9 77.4c-.2-2.8-2.7-4.1-5.2-3-4.7 2.1-9.4 4.8-14.7 4.5-1.7-.5-3.7.3-4.5 2.3-1 2.8-1.3 5.9-1.9 8.8-.4 2.4-1 4.6-.7 7 .1 1.1 1.4 2.3 2.4 2.4 3.8.6 7.8-.6 11.6-.9 3.2-.2 6.7-.2 9.6-1.7 7-3.7 3.9-13.2 3.4-19.4z" opacity=".58" fill="#dd0e3b"/><path d="M214.7 412.8c-.2.5-.3 1.1-.4 1.7-1.2 10.4 18.8 21.4 44.8 24.4 26 3.1 48.1-2.8 49.3-13.2.1-.6.1-1.1 0-1.7l-93.7-11.2zm179 24.2c-.2.5-.3 1.1-.4 1.7-1.2 10.4 18.8 21.4 44.8 24.4 26 3.1 48.1-2.8 49.3-13.2.1-.6.1-1.1 0-1.7L393.7 437z" opacity=".14" fill="#050505"/><path d="M234.9 285.6c-14.6 13.1-25.7 29.9-31.8 48.6-3.1 9.5-4.5 19.2-5.3 29.2-.9 11.5-2 22.7-7.9 32.8-5.2 8.8-12.4 16.3-17.7 25.1-4.7 7.8-8.1 16.5-9.9 25.5-3.5 17.3-1.6 35.6 5.5 51.7 16.7 37.9 60.4 54 97.4 64.7 43.6 12.6 90.1 17.2 135.1 10.6 45.8-6.8 87.5-27.3 123.6-55.9 3-2.4-1.2-6.6-4.2-4.2C488.8 538 453.5 556.5 415 565c-42.3 9.3-87.2 7-129.2-2.7-20.6-4.7-41.1-11.1-60.3-19.8-17.2-7.9-34.2-18.4-45.2-34.2-10.4-14.8-14.9-33.3-13.4-51.2.7-9 3.1-18.1 7-26.3 4.1-8.6 10.2-15.9 15.8-23.6 6.4-8.8 10.9-18 12.6-28.8 1.7-11.1 1.6-22.4 4.1-33.4 4.9-21.4 16.6-40.5 32.8-55.1 2.8-2.7-1.4-6.9-4.3-4.3z" fill="#6c3530"/><path d="M249.3 251.6c-10.1 9.6-18.8 20.4-25.9 32.3-.9 1.6-.1 4 1.8 4.4 22.4 4.6 44.9 8.8 67.4 12.5 8 1.3 13.6 1.6 17.2-6.7 4.1-9.5 9.6-17.7 17.1-24.7l-5.1-2.1c.4 8.1.8 16.2 1.3 24.4.1 2.1-.1 4.9 1.3 6.7 1.9 2.4 5.8 2.4 8.5 2.9 16.4 3 32.8 6 49.1 8.9 16.7 3 33.4 6.1 50.1 9.1 6.2 1.1 11.1 1.4 16.2-2.8 5.3-4.3 9.9-9.7 14.3-15 9.8-12.1 17.5-25.5 23.1-40-1.9-.5-3.9-1.1-5.8-1.6-3 18.1-7.4 35.9-13.1 53.4-.4 1.3.3 2.7 1.4 3.4 17.1 10.5 42.4 10.4 52.5 30 11.6 22.4-1.5 47.4-12.3 67.1-1.6 2.9 2.3 6.1 4.7 3.6 22.5-22.8 44.4-50.4 42.9-84.3-.2-3.8-6.2-3.9-6 0 1.4 32.3-19.7 58.4-41.2 80.1 1.6 1.2 3.1 2.4 4.7 3.6 11.6-21.3 24-46.3 13.5-70.6-10.2-23.5-36.7-23-55.9-34.8.5 1.1.9 2.3 1.4 3.4 5.8-17.4 10.1-35.2 13.1-53.4.6-3.8-4.4-5.2-5.8-1.6-5.8 15-14.2 29-24.8 41.2-2.4 2.7-4.8 5.3-7.4 7.8-3.8 3.7-6.6 5.8-12 4.9-9.2-1.5-18.4-3.3-27.5-5-17.7-3.2-35.4-6.4-53.1-9.7-4.6-.8-9.2-1.7-13.8-2.5-2.3-.4-4.6-.8-6.9-1.3-1-.2-4.7-.3-5.3-.8-.4-.4-.3-5.2-.3-5.8-.1-2.6-.3-5.2-.4-7.8-.2-4.5-.5-9.1-.7-13.6-.1-2.6-3.2-3.9-5.1-2.1-6.1 5.7-11.3 12.2-15.1 19.6-1.4 2.6-2.4 7.2-4.4 9.4-3.3 3.6-12.4.2-16.7-.5-20-3.4-39.9-7.2-59.7-11.2.6 1.5 1.2 2.9 1.8 4.4 6.9-11.5 15.2-21.9 24.9-31.1 3-2.5-1.2-6.7-4-4.1zm-48.8 104.7c-17.5-16.9-44.6-7.8-51 14.9-3.4 12.3-3.3 25.8-.9 38.2 1.7 8.8 4.6 24.5 15.3 26.7 3.8.8 5.4-5 1.6-5.8-4.8-1-6.5-6.4-7.9-10.5-1.6-4.5-2.7-9.1-3.5-13.8-1.7-9.8-1.6-20.3.4-30.1 2-9.5 7-17.9 16.5-21.3 8.9-3.2 18.5-.6 25.2 5.8 2.8 2.8 7.1-1.4 4.3-4.1zm-13.2-151.8c-.8 14.1-1.6 28.2-2.3 42.3-.1 2.1 2 3.2 3.8 2.9 42.4-6.3 85.4-4.3 128.1-3.3 38.5.9 76.8-1.7 115.2-2.2 20.7-.3 41.5.2 61.9 3.8 3.8.7 5.4-5.1 1.6-5.8-36.6-6.4-74.1-3.9-111-2.3-41.9 1.7-83.6-.5-125.5-.5-24 0-48.1 1.1-71.9 4.6 1.3 1 2.5 1.9 3.8 2.9.8-14.1 1.6-28.2 2.3-42.3.2-3.9-5.8-3.9-6-.1z" fill="#6c3530"/><path d="M436.8 203.2c46.3 27 83.2 68.4 104.8 117.4 1 2.3 4 1.6 5.2 0 29.6-40.2 72.5-70.4 115.5-94.8 1.6-.9 2-3.4.6-4.7-9.1-8.3-20.8-10.1-31.6-15.1-11.4-5.2-21.8-12.8-31.7-20.2-3.1-2.3-6.1 2.9-3 5.2 9.6 7.2 19.6 14.4 30.4 19.6 10.5 5.1 22.8 6.7 31.7 14.8.2-1.6.4-3.1.6-4.7-43.9 25-87.4 55.9-117.6 97h5.2c-22-49.9-59.9-92-107-119.5-3.4-2.1-6.5 3.1-3.1 5z" fill="#6c3530"/><path d="M164.6 156.2l-.6 23.6c-.1 5.9-2.2 15 1.6 20.1 3 4.1 8.8 4.2 13.3 4.7 8.3 1 16.7 1.8 25.1 2.5 31.5 2.6 63.2 3 94.8 2.4 63.5-1.3 126.8-7.2 190.3-10 36.2-1.6 72.5-2.3 108.7-.6 1.7.1 3-1.4 3-3 .4-13.9.8-27.9 1.3-41.8l.6-20.4c.1-4 .8-9.8-4.5-10.6-4.7-.7-10.7 1.6-15.4 2.3-6.9 1.1-13.8 2-20.7 2.8-12.7 1.5-25.5 2.5-38.2 3.2-52.8 2.9-105.6.4-158.4-.3-29.3-.4-58.6-.2-87.8 1.8-3.8.3-3.9 6.3 0 6 99.2-6.8 199 7.4 297.8-6.4 3.6-.5 7.1-1 10.7-1.6 2.4-.4 7.7-2.4 9.7-1.3 1.5.8.8 2.3.8 4.1-.1 1.9-.1 3.9-.2 5.8-.1 3.9-.2 7.8-.4 11.7-.5 14.9-.9 29.8-1.4 44.7l3-3c-121.8-5.6-243 15.4-364.8 10.1-16.8-.7-33.5-2-50.2-3.8-3.4-.4-11.4.2-12.9-4-1.1-3.2-.1-8 0-11.4.2-9.2.4-18.3.7-27.5.2-4-5.8-4-5.9-.1z" fill="#6c3530"/><path d="M198 102.6c-31.2 2.7-52.1 27.3-74.6 46.1-2 1.7-.4 5.2 2.1 5.1 39.6-1.4 78.7 11.1 110.3 35.2 1.2.9 3.5.3 4.1-1.1 15.5-32.8 40.8-57.4 74-72 3.5-1.5.5-6.7-3-5.2-34 14.9-60.3 40.5-76.2 74.1 1.4-.4 2.7-.7 4.1-1.1-32.3-24.6-72.7-37.4-113.3-36l2.1 5.1c21.1-17.5 41.2-41.8 70.4-44.3 3.8-.3 3.9-6.3 0-5.9z" fill="#6c3530"/><path d="M198 108.6c113.4 11.7 227.7 12.4 341.4 4.8 32.2-2.2 64.4-5 96.5-8.4-1-.7-1.9-1.5-2.9-2.2 1.1 3.1-1 7.3-1.7 10.7-1 5-1.9 10-2.5 15-1.4 10.8-1.8 21.7-1.4 32.6.7-1 1.5-1.9 2.2-2.9-8.5 3.5-17.2 4-26.1 1.4-3.7-1.1-5.3 4.7-1.6 5.8 9.7 2.9 19.9 2.4 29.3-1.4 1.2-.5 2.3-1.5 2.2-2.9-.4-11.6 0-23.2 1.7-34.6.8-5.4 1.8-10.7 3-16 .8-3.4 1.9-5.9.7-9.2-.4-1.1-1.5-2.3-2.9-2.2-113.3 12-227.5 16.7-341.3 11-32.2-1.6-64.4-4.1-96.5-7.4-3.9-.5-3.9 5.5-.1 5.9zm-14.7-51.5c-.9 17.3-2.3 34.5-4.2 51.7-.4 3.8 5.6 3.8 6 0 1.9-17.2 3.3-34.5 4.2-51.7.2-3.9-5.8-3.9-6 0z" fill="#6c3530"/><path d="M187 59c111.4-5.7 221.9 15 333.1 16 31.4.3 62.8-1 93.9-4.9l-3-3c-.4 11.3-1 22.6-1.8 33.9-.3 3.9 5.7 3.8 6 0 .7-11.3 1.3-22.6 1.8-33.9.1-1.5-1.4-3.2-3-3-110.9 13.7-221.9-5.2-332.7-10.8-31.4-1.6-62.9-2-94.4-.4-3.8.3-3.8 6.3.1 6.1zm427.1 194.6c8.8 7.2 14.5 17.9 19.3 28 5 10.6 9.3 21.8 11.5 33.4 6.1 32 2.1 65.9-13 94.8-7.8 15-17.9 28.8-30.8 39.8-2.9 2.5 1.3 6.7 4.2 4.2 47.9-40.7 60.3-112.9 35.9-169.4-5.4-12.5-12.2-26.3-22.9-35.1-2.9-2.4-7.2 1.8-4.2 4.3z" fill="#6c3530"/><path d="M531.4 413.9c8-5.3 16.7-10.8 26.5-11.7 8.2-.8 16.4 2 23 6.8 15.1 10.9 19.7 31 16.9 48.5-2.8 17-12.2 33-26.9 42.3-7.4 4.7-15.8 7.7-24.5 8.5-7.4.7-18.4.7-22.2-7.1-1.7-3.5-6.8-.4-5.2 3 6.3 13.2 26.7 11.3 38.2 8.2 15.4-4.2 28.6-14.5 36.9-28.1 15.9-26 14.9-67.4-14.9-83.3-17.9-9.6-35.3-2.7-51 7.8-3 2.1 0 7.3 3.2 5.1zM283.6 562.6c-18.2 9.1-34.8 22-48 37.4-2.5 2.9 1.7 7.2 4.2 4.2 13-15.1 29-27.6 46.8-36.5 3.5-1.6.5-6.8-3-5.1z" fill="#6c3530"/><path d="M112.9 607.6h164c3.9 0 3.9-6 0-6h-164c-3.8 0-3.8 6 0 6z" fill="#6c3530"/><path d="M108.1 605c6.4 47.9 19.8 94.8 34.3 140.8 1.2 3.7 6.9 2.1 5.8-1.6-14.3-45.4-27.7-91.9-34-139.2-.6-3.7-6.6-3.8-6.1 0z" fill="#6c3530"/><path d="M145.3 748.6h239.3c4.5 0 4.5-7 0-7H145.3c-4.5 0-4.5 7 0 7zM273.4 605c.1 9.8 5.2 20 8.2 29.2 3.6 11 7.2 21.9 10.8 32.9l21.3 64.8c1.2 3.7 7 2.1 5.8-1.6-6.9-21-13.8-41.9-20.7-62.9-3.4-10.3-6.8-20.7-10.2-31-1.6-5-3.3-10-4.9-15-1.7-5.2-4.2-10.7-4.3-16.3-.1-4-6.1-4-6-.1zm182-46.5c26 1.1 53.7 25.3 46.6 53-3.2 12.5-11.1 23.9-18.6 34.3-7.2 9.8-14.9 19.4-23.6 28-2.8 2.7 1.5 7 4.2 4.2 10.1-9.9 19-21.2 27.1-32.8 8.2-11.7 16.7-25 17.9-39.6 2.4-28.9-26.9-51.9-53.7-53-3.8-.2-3.8 5.8.1 5.9z" fill="#6c3530"/><path d="M419.3 596.8c-5 4.3-9.9 8.7-14.7 13.1-4.3 4-9.2 7.9-12.6 12.7-6.4 8.9.2 17.9 6.8 24.4 7.8 7.8 17.6 13.1 27.4 17.8 11.3 5.4 23 10 34.9 13.9 3.7 1.2 5.3-4.6 1.6-5.8-18.6-6.1-38.9-13.4-54.4-25.7-3.6-2.8-7-6.1-9.7-9.8-1.6-2.1-3.1-4.3-3.1-7.1-.1-3.3 2.4-5.7 4.6-7.9 7.5-7.5 15.5-14.7 23.5-21.6 2.9-2.3-1.4-6.5-4.3-4zM317.5 734.4c24.5-.8 49.1-.1 73.4-3.7l-4.3-4.3c-1.8 5.9-3.6 11.8-5.3 17.7-1.3 4.3 5.5 6.2 6.7 1.9 1.8-5.9 3.6-11.8 5.3-17.7.8-2.8-1.8-4.7-4.3-4.3-23.7 3.5-47.7 2.7-71.5 3.4-4.5.1-4.5 7.1 0 7zm-24.1-119.5c-2.7 6.5-2.7 14.4-3.1 21.3-.4 7.5-.3 14.9-.6 22.4-.2 3.9 5.8 3.9 6 0 .3-7 .3-14.1.6-21.1.3-6.9.2-14.6 2.9-21 1.5-3.6-4.3-5.2-5.8-1.6zm29.7-40.8c8.8 10.1 13.9 26.1 10.3 39.3-1 3.7 4.8 5.3 5.8 1.6 4.2-15.3-1.6-33.4-11.9-45.1-2.5-3-6.7 1.3-4.2 4.2z" fill="#6c3530"/><path d="M339.6 615.5c7.5-9.5 16.9-17.6 26.8-24.5 9.8-6.9 20.5-13.3 32.2-16.1 3.8-.9 2.2-6.7-1.6-5.8-12.2 3-23.4 9.5-33.6 16.7-10.3 7.2-20.2 15.6-28 25.5-2.4 2.9 1.8 7.2 4.2 4.2z" fill="#6c3530"/><path d="M338.3 618.6c18.4-6.1 37.5-10.2 57-8.9 1.3.1 2.6-1 2.9-2.2 2-7 3.7-14.1 5.2-21.3 1.1-5.3 2-10.4-.7-15.3-1.9-3.4-7.1-.3-5.2 3 2.6 4.6 0 11.2-1 16-1.2 5.3-2.6 10.7-4 15.9 1-.7 1.9-1.5 2.9-2.2-20-1.4-39.7 2.9-58.6 9.1-3.8 1.3-2.2 7.1 1.5 5.9z" fill="#6c3530"/><path d="M317.6 569.1c-7.3 2.2-14.3 5.2-21.2 8.6-4.3 2.2-7.5 5.4-2.7 9.2 6.9 5.5 15.4 9.8 22.9 14.6 5.4 3.4 15.5 7.9 16.7 15 .6 3.8 6.4 2.2 5.8-1.6-.8-4.9-4.9-8.7-8.7-11.6-5.4-4.2-11.5-7.5-17.3-11.2-3.3-2.1-6.6-4.2-9.8-6.2-1-.6-4-3.3-4.9-3.1-.6.5-1.2 1-1.8 1.6.9-.5 1.9-1 2.9-1.5 6.4-3.2 12.9-5.9 19.7-8 3.6-1.2 2.1-7-1.6-5.8zm78.7 74.3c-13.6 15.4-24.9 33.3-33.4 52-1.6 3.5 3.6 6.5 5.2 3 8.3-18.2 19.1-35.8 32.4-50.8 2.6-2.8-1.7-7.1-4.2-4.2zm54.3 30c-7.8 11.6-15.7 23-26.1 32.4-9.4 8.4-20.5 18.3-33.7 18.5-3.9.1-3.9 6.1 0 6 14-.3 25.6-9.4 35.6-18.2 11.8-10.4 20.7-22.7 29.4-35.7 2.2-3.2-3-6.2-5.2-3z" fill="#6c3530"/><path d="M365.1 696.7c-12-3.1-25.7-4.8-36.7 2.6-3.5 2.3-8.5 6.4-8.1 11.1.4 5 5.7 8 10.1 8.8 3.8.7 5.4-5.1 1.6-5.8-1.7-.3-5.8-1.7-5.3-4.3.2-1.1 3.3-3.6 4.2-4.3 2.6-1.9 5.7-3.2 8.9-4 7.9-2 16.1-.4 23.8 1.6 3.6 1 5.2-4.8 1.5-5.7z" fill="#6c3530"/><path d="M342.6 709.9c-2.9 0-6 .4-8.4 2.3-2.3 1.9-3.5 5-3.4 8 .1 2.6 1.2 5.2 3.6 6.4 1.9 1 4.2 1.3 6.3 1.6 3.8.6 5.4-5.1 1.6-5.8-1.5-.2-4.8-.4-5.4-1.7-.5-1.2.2-3.3 1.2-4 1.2-.9 3.1-.9 4.5-.9 3.9.1 3.9-5.9 0-5.9z" fill="#6c3530"/><path d="M350.8 717.5c-2.6.5-5.4 1.2-7.3 3.2-1.9 1.9-2.9 4.9-1.9 7.5.6 1.5 2 2.6 3.7 2.1 1.4-.4 2.7-2.2 2.1-3.7-.2-.4-.3-.5-.1-1 .2-.4.4-.7.8-1 1.2-.9 2.9-1.1 4.3-1.3 1.6-.3 2.5-2.2 2.1-3.7-.5-1.7-2.1-2.4-3.7-2.1zm213.9-69.1c-6.3 14.8-11.4 30-17.1 44.9-5.8 15.2-11.4 31-20.3 44.7-2.1 3.2 3.1 6.3 5.2 3 8.6-13.3 14.2-28.7 19.9-43.4 5.9-15.4 11.1-31 17.6-46.2 1.3-3.4-3.8-6.5-5.3-3zm-62.8-114.3c6.7.2 13.3.9 19.9 2.1 3.8.6 5.4-5.1 1.6-5.8-7.1-1.2-14.3-2-21.5-2.3-3.8-.1-3.8 5.9 0 6z" fill="#6c3530"/><path d="M388.9 744.2h380.9c3.9 0 3.9-6 0-6H388.9c-3.9 0-3.9 6 0 6zm-358.6 0h111.6c3.9 0 3.9-6 0-6H30.3c-3.9 0-3.9 6 0 6zM599 462.7c3.2 4.5 4.6 9.8 5.9 15.1 1.6 6.6 3 13.3 3.6 20.1 1.3 13.5-.8 27.7-10.7 37.8-2.7 2.8 1.5 7 4.2 4.2 10.5-10.6 13.7-25.6 12.6-40.1-.5-7.5-2-14.9-3.7-22.2-1.4-6.2-3.1-12.7-6.8-18-2.1-3-7.3 0-5.1 3.1zm-77.9 43.7c-3.1 12.5-3.9 26.2 2.2 37.9 4.9 9.4 13.8 16 24.4 17 3.8.4 3.8-5.6 0-6-8.9-.9-16.2-7.4-19.8-15.3-4.7-10-3.5-21.7-1-32 .9-3.8-4.9-5.4-5.8-1.6z" fill="#6c3530"/><path d="M533.4 553.1c-5.5 1.3-5.5 8.2-5.6 12.8-.2 6.1.8 12.5 3.7 17.9 7.5 13.7 23.8 13.2 37.1 15.9 3.8.8 5.4-5 1.6-5.8-9.8-2-22.4-1.2-30.1-8.6-3.5-3.3-5.2-7.8-6-12.4-.3-1.9-1.5-13.5.8-14 3.8-.9 2.2-6.7-1.5-5.8z" fill="#6c3530"/><path d="M605.1 530.3c5.6 13 8.6 30.1 2.6 43.5-6.6 14.6-23.1 21-38.3 20.1-3.9-.2-3.8 5.8 0 6 17.3 1 35.9-6.7 43.4-23 7.2-15.4 3.9-34.4-2.6-49.5-1.4-3.7-6.6-.6-5.1 2.9z" fill="#6c3530"/><path d="M551.4 595.1c.2 4.9.5 9.8 1.1 14.7.4 3.2 1 6.3 3.7 8.2 2.5 1.9 5.8 1.9 8.8 2.1 5 .3 10.1.5 15.1.3 6.6-.3 18.1-1 22.3-7 1.9-2.7 1.9-6.7 1.9-9.8.1-4.9-.6-9.7-1.8-14.4-1-3.7-6.7-2.2-5.8 1.6 1.2 4.6 4.2 16.6-.4 20.1-4.4 3.3-12.8 3.4-18 3.6-2.7.1-5.4 0-8-.1-2.5-.1-6.5.4-8.9-.6-5-1.9-3.8-14.2-4.1-18.7-.1-3.8-6.1-3.8-5.9 0z" fill="#6c3530"/><path d="M555.4 617.5c-2.2 7.2-4.4 14.4-6.4 21.6-1.2 4.2-5.1 12.1-1.3 15.9 3.4 3.3 10.6 1.3 14.4 0 2.5-.8 7.6-3.9 10.1-3.3 2.3.5 4.5 4.7 6.4 6.3 7.9 7.1 19.7 7.1 24.5-3.4 2.6-5.8 2.1-12.7 1.7-18.9-.5-6.9-1.6-13.7-4-20.2-1.3-3.6-7.1-2-5.8 1.6 1.9 5.2 3 10.4 3.6 15.9.5 5.2 1.2 11.2 0 16.3-1.4 5.9-6.2 9.8-12.2 6.8-4.5-2.2-6.2-6.7-9.9-9.5-2.7-2-5.4-1.4-8.3-.3-2.9 1-12.3 6.1-15.1 3.8-1.7-1.4 2.6-12.4 3.3-14.9 1.6-5.4 3.2-10.8 4.9-16.2 1-3.6-4.8-5.2-5.9-1.5zM159.2 363c-.2-23.7 2.5-49 14.3-70 11.3-20.1 28.8-36.4 49.7-46.2 3.5-1.6.5-6.8-3-5.2-21.8 10.1-40 27.4-51.8 48.3-12.3 21.9-15.4 48.3-15.1 73 0 3.9 6 3.9 5.9.1zm-10.8 33c-14.2 6.1-23.6 18.8-26.5 33.9-2.8 14.2.2 29.7 13.1 38 3.3 2.1 6.3-3.1 3-5.2-11.6-7.4-12.7-22.4-9.5-34.7 3.2-12.3 11.3-21.8 23-26.9 3.5-1.5.4-6.7-3.1-5.1z" fill="#6c3530"/><path d="M129 457.8c-9 6.9-12.4 17.8-10.7 28.9 1.6 10.8 7.5 23.6 17.2 29.5 6.6 4 12.7 2.8 19.7 1.4 6-1.2 14.4-1.8 19.7-5.3 3.2-2.1.2-7.3-3-5.2-3.6 2.4-9.6 2.8-13.8 3.7-3.9.8-8.2 2.2-12.3 2.3-10.7.1-17.1-12.4-20-21-3.3-10-2.6-22.2 6.3-29.1 2.9-2.3-.1-7.5-3.1-5.2z" fill="#6c3530"/><path d="M132.2 514.5c-.2 2.7-.7 5.5-.3 8.2.5 3.1 2.8 5.5 5.1 7.4 5.6 4.6 13.5 3.8 20.3 4 5.7.2 13.8 2.2 17.3-3.7 3.2-5.2 1.7-12.8-.3-18.1-1.3-3.6-7.1-2-5.8 1.6 1.1 3 3.7 10.7.9 13.5-2.5 2.5-11 .7-14 .6-4.1-.1-9.7.5-13.5-1.7-4.7-2.8-4.1-7.2-3.8-11.9.4-3.7-5.6-3.7-5.9.1z" fill="#6c3530"/><path d="M134 527.8c-1 6.9-1.3 13.8-1.6 20.7-.2 5.5-1.5 11.8 0 17.2 1.3 4.6 5.2 7.7 10.1 7.4 6.2-.4 10.5-7.2 16.4-7.3 3.5-.1 6.4 3.5 9.4 4.9 2.1 1 4.4 1.6 6.7 1.3 5-.6 7.8-4.6 8.6-9.3 2.1-11.1-1.7-24.9-7.8-34.2-2.1-3.2-7.3-.2-5.2 3 5 7.7 7.4 17.2 7.4 26.4 0 1.9 0 4.6-1 6.3-2.2 3.5-6.3 1.2-9-.6-3.3-2.2-6.4-4.1-10.5-3.6-3.6.5-6.5 2.7-9.5 4.6-2.6 1.7-6.4 3.8-8.9 1.2-1.5-1.6-1.3-4-1.3-6 0-10 .5-20.5 2-30.4.5-3.8-5.2-5.4-5.8-1.6zm13.1-56.1c3.8 2.8 8.5 4.2 13.2 4.1 3.9-.1 3.9-6.1 0-6-3.8.1-7.1-1-10.2-3.2-3.1-2.4-6.1 2.8-3 5.1zm339.2 173.9c2.1 30.2-.3 60.4 0 90.6 0 3.9 6 3.9 6 0-.3-30.2 2.1-60.5 0-90.6-.2-3.9-6.2-3.9-6 0zm46-252.2c1.4.6 1.7 3.2 2.1 4.6.6 2.3 1.1 4.5 1.4 6.9.6 3.8 6.4 2.2 5.8-1.6-.5-3.3-1.2-6.6-2.3-9.7-.8-2.2-1.8-4.3-4-5.3-3.5-1.7-6.6 3.5-3 5.1z" fill="#6c3530"/><circle cx="442.5" cy="422.8" r="75.8" fill="none" stroke="#6c3530" stroke-width="5" stroke-miterlimit="10"/><circle cx="273.5" cy="406.8" r="75.8" fill="none" stroke="#6c3530" stroke-width="5" stroke-miterlimit="10"/><path d="M351.7 418.7c4.8.1 9.4 1.1 13.9 2.9 3 1.2 4.3-3.6 1.3-4.8-4.9-2-9.9-2.9-15.2-3-3.2-.1-3.2 4.9 0 4.9zm-125.4-39.6c29.4 3.5 58.8 6.9 88.3 10.4 3.8.5 3.8-5.6 0-6-29.4-3.5-58.8-6.9-88.3-10.4-3.8-.4-3.8 5.6 0 6zm-9 37.9c29.4 3.5 58.8 6.9 88.3 10.4 3.8.5 3.8-5.6 0-6-29.4-3.5-58.8-6.9-88.3-10.4-3.8-.4-3.8 5.6 0 6zm187.9-14.6c29.4 3.5 58.8 6.9 88.3 10.4 3.8.5 3.8-5.6 0-6-29.4-3.5-58.8-6.9-88.3-10.4-3.8-.4-3.8 5.6 0 6zm-8.9 37.9c29.4 3.5 58.8 6.9 88.3 10.4 3.8.5 3.8-5.6 0-6-29.4-3.5-58.8-6.9-88.3-10.4-3.9-.4-3.8 5.6 0 6zm-67.4 87.1c-2.9 6.8-4.1 18.6 2.7 23.6s15.6-1.6 18.2-8.4c2.9-7.5-2.1-18.6-8.6-23-8-5.4-12.6 3.7-12.9 10.5-.2 3.9 5.8 3.9 6 0 .1-1.9.5-5.8 3.4-5.6 1.5.1 3.1 3.4 3.8 4.7 2.5 4 4.6 9.1 1.5 13.3-2.6 3.6-7 6.7-9.5 1.1-1.5-3.5-.9-9.7.6-13.1 1.5-3.6-3.6-6.6-5.2-3.1zm29.3-368.5c-27.4-1.3-54.8-2-82.3-2.2-3.9 0-3.9 6 0 6 27.4.2 54.9.9 82.3 2.2 3.9.1 3.9-5.9 0-6zm192.5 14.3c-51.4.4-102.8.5-154.2.2-3.9 0-3.9 6 0 6 51.4.2 102.8.1 154.2-.2 3.9 0 3.9-6 0-6zm-161.4-17h-10.9c-3.9 0-3.9 6 0 6h10.9c3.8 0 3.8-6 0-6zm-20.2 62.1c-40.2 2.1-80.4 3.5-120.6 4.1-3.9.1-3.9 6.1 0 6 40.2-.6 80.4-1.9 120.6-4.1 3.8-.2 3.8-6.2 0-6zm92.1-121.5c-73.5-4.1-147-9.4-220.4-15.7-3.8-.3-3.8 5.7 0 6 73.4 6.3 146.9 11.5 220.4 15.7 3.9.2 3.9-5.8 0-6zm85.4-3.2c-11.6-.5-23.1-.6-34.7-.1-3.8.1-3.9 6.1 0 6 11.6-.4 23.1-.4 34.7.1 3.8.2 3.8-5.8 0-6z" fill="#6c3530"/><path d="M273.6 359c-18.9-2-37.5 10.8-49.1 24.7-4.9 5.9 3.8 14.2 8.7 8.2 8.5-10.1 23.5-22.7 37.8-21.2 7.6.8 10.3-10.9 2.6-11.7zm167.5 15.9c-18.9-2-37.5 10.8-49.1 24.7-4.9 5.9 3.8 14.2 8.7 8.2 8.5-10.1 23.5-22.7 37.8-21.2 7.6.8 10.3-10.9 2.6-11.7z" opacity=".8" fill="#fff"/></svg>