<?xml version="1.0" standalone="no"?><!DOCTYPE svg PUBLIC "-//W3C//DTD SVG 1.1//EN" "http://www.w3.org/Graphics/SVG/1.1/DTD/svg11.dtd"><svg class="icon" width="200px" height="200.00px" viewBox="0 0 1024 1024" version="1.1" xmlns="http://www.w3.org/2000/svg"><path d="M422.2 523.2l40.6 0c21 0 41.8 2.9 61.8 8.7 3 0.9 6 1.3 8.9 1.3 13.9 0 26.7-9.1 30.7-23.1 4-14-1.8-28.4-13.5-35.9 65.8-37.6 110.2-108.5 110.2-189.8 0-120.6-97.8-218.4-218.4-218.4s-218.4 97.8-218.4 218.4c0 80.7 43.8 151.2 108.9 189-37.9 12.5-73 32.8-103.1 60.2-49.2 44.9-80.9 104.9-90.3 170.3l-21.4 0c-29.9 0-54.2-24.3-54.2-54.2L64 118.2c0-29.9 24.3-54.2 54.2-54.2l657.6 0c29.9 0 54.2 24.3 54.2 54.2l0 391.5c0 17.7 14.3 32 32 32s32-14.3 32-32L894 118.2c0-65.2-53-118.2-118.2-118.2L118.2 0C53 0 0 53 0 118.2l0 531.6c0 65.2 53 118.2 118.2 118.2l392.5 0c17.7 0 32-14.3 32-32s-14.3-32-32-32L204.4 704C223.6 599.7 314.1 523.2 422.2 523.2zM333.3 175.3c29.2-29.2 67.9-45.2 109.2-45.2 41.2 0 80 16.1 109.2 45.2 29.2 29.2 45.2 67.9 45.2 109.2s-16.1 80-45.2 109.2c-29.2 29.2-67.9 45.2-109.2 45.2-41.2 0-80-16.1-109.2-45.2-29.2-29.2-45.2-67.9-45.2-109.2S304.1 204.4 333.3 175.3z" fill="#ffffff" /><path d="M1008.2 702.6l-414-137.8c-2.2-0.7-4.6-1.1-7-1.1-2.4 0-4.9 0.4-7.4 1.1-12.2 4-18.9 17-14.9 29.6l137.6 412.5c1.7 5.8 5.6 11.1 11.4 14.2 3.5 1.9 7.3 2.8 11 2.8 8.4 0 16.5-4.6 20.5-12.4l63.5-120.9 115.3 115.5 1.3 1.1c4.5 4.5 10.4 6.7 16.4 6.7s11.9-2.2 16.4-6.7l49.1-49.3c9.1-9.1 9.1-23.6 0-32.8l-116.6-116.4 120.7-63.5c5.3-3 9.3-7.3 11.2-13.4C1026.9 719.6 1020.1 706.5 1008.2 702.6zM861 752.1l-71.3 37.5-37.4 71.2-18.9 36.1-82-245.7 245.8 81.8L861 752.1z" fill="#ffffff" /></svg>